<mxfile host="app.diagrams.net" modified="2023-10-13T17:34:56.938Z" agent="Mozilla/5.0 (Macintosh; Intel Mac OS X 10.15; rv:109.0) Gecko/20100101 Firefox/118.0" etag="orgqspZVxhZe8Cl1qAx-" version="21.8.0" type="github">
  <diagram name="Page-1" id="frZnuTy-sbe9E_lo1I7S">
    <mxGraphModel dx="1026" dy="687" grid="1" gridSize="10" guides="1" tooltips="1" connect="1" arrows="1" fold="1" page="1" pageScale="1" pageWidth="827" pageHeight="1169" math="0" shadow="0">
      <root>
        <mxCell id="0" />
        <mxCell id="1" parent="0" />
        <mxCell id="9yZUOv0VDc5TfeG922Bp-1" value="" style="verticalLabelPosition=bottom;verticalAlign=top;html=1;shape=mxgraph.basic.rect;fillColor2=none;strokeWidth=1;size=20;indent=5;" vertex="1" parent="1">
          <mxGeometry x="191" y="140" width="400" height="210" as="geometry" />
        </mxCell>
        <mxCell id="9yZUOv0VDc5TfeG922Bp-2" value="" style="verticalLabelPosition=bottom;verticalAlign=top;html=1;shape=mxgraph.basic.rect;fillColor2=none;strokeWidth=1;size=20;indent=5;fillColor=#ffe6cc;strokeColor=#d79b00;" vertex="1" parent="1">
          <mxGeometry x="191" y="360" width="160" height="70" as="geometry" />
        </mxCell>
        <mxCell id="9yZUOv0VDc5TfeG922Bp-3" value="&lt;div&gt;Upload Image &amp;amp;&amp;nbsp;&lt;/div&gt;&lt;div&gt;Read Digit&lt;/div&gt;" style="text;html=1;align=center;verticalAlign=middle;resizable=0;points=[];autosize=1;strokeColor=none;fillColor=none;" vertex="1" parent="1">
          <mxGeometry x="215" y="375" width="110" height="40" as="geometry" />
        </mxCell>
        <mxCell id="9yZUOv0VDc5TfeG922Bp-4" value="" style="verticalLabelPosition=bottom;verticalAlign=top;html=1;shape=mxgraph.basic.rect;fillColor2=none;strokeWidth=1;size=20;indent=5;" vertex="1" parent="1">
          <mxGeometry x="371" y="360" width="220" height="70" as="geometry" />
        </mxCell>
        <mxCell id="9yZUOv0VDc5TfeG922Bp-5" value="Result : &lt;br&gt;&lt;b&gt;&lt;font style=&quot;font-size: 23px;&quot;&gt;2&lt;/font&gt;&lt;/b&gt;" style="text;html=1;align=center;verticalAlign=middle;resizable=0;points=[];autosize=1;strokeColor=none;fillColor=none;" vertex="1" parent="1">
          <mxGeometry x="451" y="365" width="60" height="60" as="geometry" />
        </mxCell>
        <mxCell id="9yZUOv0VDc5TfeG922Bp-6" value="" style="verticalLabelPosition=bottom;verticalAlign=top;html=1;shape=mxgraph.basic.rect;fillColor2=none;strokeWidth=1;size=20;indent=5;fillColor=#f8cecc;strokeColor=#b85450;" vertex="1" parent="1">
          <mxGeometry x="190" y="440" width="160" height="70" as="geometry" />
        </mxCell>
        <mxCell id="9yZUOv0VDc5TfeG922Bp-7" value="" style="verticalLabelPosition=bottom;verticalAlign=top;html=1;shape=mxgraph.basic.rect;fillColor2=none;strokeWidth=1;size=20;indent=5;fillColor=#e1d5e7;strokeColor=#9673a6;" vertex="1" parent="1">
          <mxGeometry x="371" y="440" width="220" height="70" as="geometry" />
        </mxCell>
        <mxCell id="9yZUOv0VDc5TfeG922Bp-8" value="&lt;div&gt;Translate Text into&lt;/div&gt;&lt;div&gt;&amp;nbsp;Bangla&lt;/div&gt;" style="text;html=1;align=center;verticalAlign=middle;resizable=0;points=[];autosize=1;strokeColor=none;fillColor=none;" vertex="1" parent="1">
          <mxGeometry x="216" y="455" width="120" height="40" as="geometry" />
        </mxCell>
        <mxCell id="9yZUOv0VDc5TfeG922Bp-9" value="Text To Speech" style="text;html=1;align=center;verticalAlign=middle;resizable=0;points=[];autosize=1;strokeColor=none;fillColor=none;" vertex="1" parent="1">
          <mxGeometry x="426" y="460" width="110" height="30" as="geometry" />
        </mxCell>
        <mxCell id="9yZUOv0VDc5TfeG922Bp-10" value="" style="sketch=0;outlineConnect=0;fontColor=#232F3E;gradientColor=none;fillColor=#ED7100;strokeColor=none;dashed=0;verticalLabelPosition=bottom;verticalAlign=top;align=center;html=1;fontSize=12;fontStyle=0;aspect=fixed;pointerEvents=1;shape=mxgraph.aws4.container_registry_image;" vertex="1" parent="1">
          <mxGeometry x="367" y="221" width="48" height="48" as="geometry" />
        </mxCell>
        <mxCell id="9yZUOv0VDc5TfeG922Bp-11" value="" style="swimlane;startSize=0;" vertex="1" parent="1">
          <mxGeometry x="120" y="80" width="560" height="480" as="geometry" />
        </mxCell>
      </root>
    </mxGraphModel>
  </diagram>
</mxfile>
